<svg id="SvgjsSvg1001" width="550" height="550" xmlns="http://www.w3.org/2000/svg" version="1.1" xmlns:xlink="http://www.w3.org/1999/xlink" xmlns:svgjs="http://svgjs.com/svgjs"><defs id="SvgjsDefs1002"></defs><g id="SvgjsG1008"><svg xmlns="http://www.w3.org/2000/svg" enable-background="new 0 0 2000 2000" viewBox="0 0 2000 2000" width="550" height="550"><path fill="#e9eff8" fill-rule="evenodd" d="M956.7,516.8c-192.1,0-273.1,137.5-411.8,244.3c-183.6,141.4-367.2,49.4-396.5,527.2
		c-26.2,425.3,300.3,46,760.6,198.4c460.3,152.4,929,213.7,789.9-279.2S1403.1,516.8,956.7,516.8z" clip-rule="evenodd" class="colore9eff8 svgShape"></path><path fill="#dce6f2" fill-rule="evenodd" d="M324,1479.8c59.3,0,107.6-8.9,107.6-19.8c0-10.9-48.3-19.8-107.6-19.8c-59.3,0-107.6,8.9-107.6,19.8
		C216.3,1471,264.7,1479.8,324,1479.8z" clip-rule="evenodd" class="colordce6f2 svgShape"></path><path fill="#ffffff" fill-rule="evenodd" d="M953.9,951c-13.8-7.6-15-29.5-0.5-36.9c1.8-0.9,4.4-2.3,6.4-2.6c1-0.1,7.6,0.7,7.5,2.2c0.2-5,4-9.3,8.3-11.9
			c10.9-6.4,26.5-3,33.7,7.3c7.3,10.3,5.2,26.1-4.6,34.2c3.9-1.7,8.8-0.6,11.5,2.7c2.7,3.2,3,8.3,0.6,11.8c5.1-3,12.4-1.1,15.5,3.9
			c7.8-1.7,16-1,23.4,1.9c1.6,0.7,3.3,1.5,4.4,2.9c1.1,1.4,1.3,3.6,0.1,4.9c-0.8,0.8-1.9,1.2-3.1,1.4c-4.3,0.9-8.6,0.9-13,0.9
			c-20.3,0.1-40.5,0.2-60.8,0.3c-2,0-4.1,0-6-0.8c-1.9-0.8-3.4-2.8-3.1-4.8c-3,2.3-6.5,4.2-10.2,4.6c-3.8,0.4-7.8-0.7-10.3-3.5
			c-11.8,3.2-24.3,3.9-36.4,2.2c-2-0.3-4-0.7-5.7-1.8c-1.7-1.1-2.9-3.1-2.6-5.1c0.4-2,2.3-3.4,4.2-3.8c2-0.4,4-0.1,6,0.3
			c-0.8-3.9,1.6-7.9,4.8-10c3.3-2.2,7.4-2.8,11.3-2.9C941.8,948.1,948,949,953.9,951z" clip-rule="evenodd" class="colorfff svgShape"></path><path fill="#f6f9fc" fill-rule="evenodd" d="M913.4,960.9c-2,0.4-3.9,1.8-4.2,3.8c-0.4,2,0.9,4,2.6,5.1c1.7,1.1,3.7,1.5,5.7,1.8c12.1,1.8,24.6,1,36.4-2.2
			c2.6,2.8,6.6,3.9,10.3,3.5c3.8-0.4,7.3-2.2,10.2-4.6c-0.3,2,1.3,3.9,3.1,4.8c1.9,0.8,4,0.9,6,0.8c20.3-0.1,40.5-0.2,60.8-0.3
			c4.3,0,8.7,0,13-0.9c1.1-0.2,2.3-0.5,3.1-1.4c1.2-1.3,1-3.5-0.1-4.9c-0.4-0.5-0.9-1-1.4-1.4c-6.2,1.8-13,1.2-19.4,0
			c-2.2-0.4-4.5-0.9-6-2.6c-0.3-0.3-0.5-0.6-0.6-1c-0.1,0-0.2,0-0.3,0.1c-3.1-5-10.4-6.8-15.5-3.9c2.4-3.5,2.2-8.6-0.6-11.8
			c-2.7-3.3-7.7-4.4-11.5-2.7c7.3-6,10.3-16.4,8.3-25.5c-0.9,6.3-3.1,12.5-7,17.4c-4.6,5.9-11.9,10-19.3,9.8
			c-1-7.7-6-14.8-12.9-18.3c3.8,2.9,3.9,9.1,0.6,12.6c-3.2,3.5-8.8,4.1-13.1,2c-4.3-2.1-7.1-6.4-8.3-11c-1.7-6.8,0.7-12.6,4.2-18.1
			c-1.4,0.6-2.8,1.3-3.9,1.9c-14.5,7.4-13.3,29.3,0.5,36.9c-1.5-0.5-3-0.9-4.5-1.3c-5,1.3-10.5,2.1-15.5,3.5
			c-5.2,1.4-10.5,4.6-12,9.8c-0.8-0.7-1.6-1.3-2.5-1.8l0,0C917.4,960.8,915.4,960.4,913.4,960.9z" clip-rule="evenodd" class="colorf6f9fc svgShape"></path><path fill="#ebf4f8" fill-rule="evenodd" d="M953.9 951c-13.8-7.6-15-29.5-.5-36.9 1.1-.6 2.5-1.3 3.9-1.9-7.3 3.5-11 11.9-11.1 20-.1 4.2.7 8.6 3.4 11.8 2.5 2.8 6.3 4.3 10 4.5 3.8.2 7.5-.6 11.1-1.7C966.5 950.8 959 953.9 953.9 951zM1016.9 957.9c2.4-3.5 2.2-8.6-.6-11.8-2.7-3.3-7.7-4.4-11.5-2.7 2.9-.5 5.6 2.2 6.1 5 .6 2.8-.6 5.8-2.3 8.1-.7 1-1.5 1.9-2.6 2.5-1.6.9-3.5.9-5.3.9-4.2-.2-8.9-1.4-10.9-5.1-.4 2.9 1.6 5.7 4.1 7.1 2.5 1.4 5.5 1.7 8.4 1.7 2.7.1 5.5-.1 8.1-.9C1013.2 961.9 1015.4 960.1 1016.9 957.9zM1060.2 966.5c1.1 1.4 1.3 3.6.1 4.9-.8.8-1.9 1.2-3.1 1.4-4.3.9-8.6.9-13 .9-20.3.1-40.5.2-60.8.3-2 0-4.1 0-6-.8-1.9-.8-3.4-2.8-3.1-4.8 3.2 2.3 7 2.7 11 2.8 4.7.2 9.6.2 14.2-.9 4.6-1.1 9.1-3.4 12-7.2.4 3.1-1.2 6.4-3.8 8 13.7-1.7 27.6-.1 41.4-.4C1053.2 970.7 1058.7 970.3 1060.2 966.5z" clip-rule="evenodd" class="colorebf4f8 svgShape"></path><path fill="#ebf4f8" fill-rule="evenodd" d="M974.4,968.4c-3,2.3-6.5,4.2-10.2,4.6c-3.8,0.4-7.8-0.7-10.3-3.5c-11.8,3.2-24.3,3.9-36.4,2.2
			c-2-0.3-4-0.7-5.7-1.8c-1.7-1.1-2.9-3.1-2.6-5.1c1.6,3.1,5.9,3.8,9.4,4.1c4,0.3,8.1,0,12.1-0.9c-1.8-0.4-3.6-1.4-4.8-2.8
			c10.8,2.6,22.5,1.7,32.7-2.7c-0.4,2,0.8,4.1,2.6,5c1.8,1,3.9,1,5.9,0.7c6.6-1.3,11.9-7.5,12-14.2
			C979.9,958.8,978.3,965.3,974.4,968.4z" clip-rule="evenodd" class="colorebf4f8 svgShape"></path><path fill="#ffffff" fill-rule="evenodd" d="M1260.9,1048.2c-27.6-15.2-30-59.1-1-73.8c3.6-1.8,8.9-4.6,12.8-5.2c2-0.3,15.2,1.4,15,4.4
			c0.5-10.1,7.9-18.6,16.6-23.7c21.8-12.8,52.9-6.1,67.5,14.6c14.5,20.7,10.3,52.3-9.1,68.4c7.7-3.5,17.6-1.2,23.1,5.3
			c5.4,6.5,5.9,16.7,1.1,23.6c10.2-5.9,24.8-2.3,31.1,7.7c15.5-3.3,32-2,46.7,3.9c3.3,1.3,6.6,2.9,8.7,5.8c2.1,2.8,2.6,7.2,0.2,9.8
			c-1.5,1.7-3.9,2.3-6.1,2.7c-8.5,1.7-17.2,1.7-25.9,1.8c-40.5,0.2-81.1,0.4-121.6,0.6c-4.1,0-8.3,0-12-1.7
			c-3.7-1.7-6.8-5.5-6.2-9.6c-5.9,4.7-12.9,8.3-20.4,9.1c-7.5,0.8-15.6-1.5-20.7-7.1c-23.6,6.4-48.6,7.9-72.8,4.3
			c-4-0.6-8.1-1.4-11.4-3.6c-3.4-2.2-5.9-6.2-5.1-10.2c0.7-4,4.5-6.8,8.5-7.7c4-0.9,8.1-0.1,12,0.7c-1.6-7.7,3.1-15.7,9.7-20
			c6.6-4.3,14.7-5.5,22.6-5.8C1236.5,1042.3,1249.1,1044.1,1260.9,1048.2z" clip-rule="evenodd" class="colorfff svgShape"></path><path fill="#f6f9fc" fill-rule="evenodd" d="M1179.8,1067.8c-3.9,0.9-7.7,3.7-8.5,7.7c-0.7,4,1.7,8,5.1,10.2c3.4,2.2,7.5,3,11.4,3.6
			c24.2,3.6,49.2,2.1,72.8-4.3c5.1,5.6,13.2,7.9,20.7,7.1c7.5-0.8,14.5-4.4,20.4-9.1c-0.6,4.1,2.5,7.9,6.2,9.6c3.7,1.7,8,1.7,12,1.7
			c40.5-0.2,81.1-0.4,121.6-0.6c8.7,0,17.4-0.1,25.9-1.8c2.2-0.4,4.6-1.1,6.1-2.7c2.4-2.6,1.9-6.9-0.2-9.8c-0.8-1-1.7-1.9-2.8-2.7
			c-12.3,3.6-25.9,2.3-38.7,0c-4.4-0.8-9.1-1.8-12.1-5.1c-0.5-0.6-1-1.2-1.3-2c-0.2,0-0.4,0.1-0.6,0.1c-6.3-10-20.9-13.6-31.1-7.7
			c4.8-7,4.3-17.1-1.1-23.6c-5.4-6.5-15.3-8.8-23.1-5.3c14.5-12.1,20.5-32.8,16.6-51.1c-1.9,12.6-6.3,24.9-14.1,34.9
			c-9.3,11.8-23.7,20-38.7,19.6c-2-15.4-12-29.6-25.9-36.7c7.5,5.7,7.7,18.2,1.3,25.1c-6.4,6.9-17.7,8.1-26.2,4
			c-8.5-4.1-14.3-12.7-16.5-21.9c-3.3-13.6,1.4-25.1,8.5-36.2c-2.8,1.1-5.7,2.6-7.9,3.7c-29,14.7-26.6,58.6,1,73.8
			c-3-1-5.9-1.9-9-2.6c-10,2.6-21.1,4.3-30.9,7c-10.4,2.8-20.9,9.3-24.1,19.6c-1.6-1.3-3.3-2.6-5.1-3.7c0,0,0,0,0,0
			C1187.9,1067.7,1183.8,1066.9,1179.8,1067.8z" clip-rule="evenodd" class="colorf6f9fc svgShape"></path><path fill="#ebf4f8" fill-rule="evenodd" d="M1260.9 1048.2c-27.6-15.2-30-59.1-1-73.8 2.2-1.1 5.1-2.6 7.9-3.7-14.5 7.1-22 23.8-22.3 40-.1 8.4 1.3 17.2 6.8 23.6 4.9 5.7 12.5 8.6 20.1 9 7.5.5 15-1.3 22.2-3.4C1286 1047.8 1271.1 1053.8 1260.9 1048.2zM1386.9 1061.8c4.8-7 4.3-17.1-1.1-23.6-5.4-6.5-15.3-8.8-23.1-5.3 5.7-1 11.2 4.3 12.3 10 1.1 5.7-1.2 11.6-4.6 16.3-1.4 2-3.1 3.8-5.2 5-3.2 1.8-7 1.9-10.7 1.7-8.4-.4-17.9-2.8-21.7-10.2-.7 5.8 3.2 11.3 8.3 14.1 5.1 2.8 11.1 3.4 16.9 3.5 5.5.1 11-.1 16.3-1.7C1379.4 1069.9 1383.8 1066.3 1386.9 1061.8zM1473.5 1079.2c2.1 2.8 2.6 7.2.2 9.8-1.5 1.7-3.9 2.3-6.1 2.7-8.5 1.7-17.2 1.7-25.9 1.8-40.5.2-81.1.4-121.6.6-4.1 0-8.3 0-12-1.7-3.7-1.7-6.8-5.5-6.2-9.6 6.4 4.5 14.1 5.4 21.9 5.7 9.5.3 19.1.3 28.4-1.9 9.3-2.2 18.2-6.8 24-14.3.7 6.2-2.4 12.7-7.6 16.1 27.4-3.4 55.2-.2 82.8-.7C1459.4 1087.5 1470.5 1086.7 1473.5 1079.2zM1301.8 1082.8c-5.9 4.7-12.9 8.3-20.4 9.1-7.5.8-15.6-1.5-20.7-7.1-23.6 6.4-48.6 7.9-72.8 4.3-4-.6-8.1-1.4-11.4-3.6-3.4-2.2-5.9-6.2-5.1-10.2 3.2 6.2 11.7 7.6 18.7 8.2 8.1.7 16.3.1 24.1-1.7-3.7-.8-7.1-2.7-9.7-5.5 21.6 5.3 44.9 3.3 65.3-5.4-.9 4 1.6 8.1 5.2 10.1 3.5 2 7.9 2.1 11.8 1.3 13.2-2.5 23.7-15 24-28.5C1312.9 1063.7 1309.6 1076.6 1301.8 1082.8z" clip-rule="evenodd" class="colorebf4f8 svgShape"></path><path fill="#ffffff" fill-rule="evenodd" d="M526.1,987.6c-27.6-15.2-30-59.1-1-73.8c3.6-1.8,8.9-4.6,12.8-5.2c2-0.3,15.2,1.4,15,4.4
			c0.5-10.1,7.9-18.6,16.6-23.7c21.8-12.8,52.9-6.1,67.5,14.6c14.5,20.7,10.3,52.3-9.1,68.4c7.7-3.5,17.6-1.2,23.1,5.3
			c5.4,6.5,5.9,16.7,1.1,23.6c10.2-5.9,24.8-2.3,31.1,7.7c15.5-3.3,32-2,46.7,3.9c3.3,1.3,6.6,2.9,8.7,5.8c2.1,2.8,2.6,7.2,0.2,9.8
			c-1.5,1.7-3.9,2.3-6.1,2.7c-8.5,1.7-17.2,1.7-25.9,1.8c-40.5,0.2-81.1,0.4-121.6,0.6c-4.1,0-8.3,0-12-1.7
			c-3.7-1.7-6.8-5.5-6.2-9.6c-5.9,4.7-12.9,8.3-20.4,9.1c-7.5,0.8-15.6-1.5-20.7-7.1c-23.6,6.4-48.6,7.9-72.8,4.3
			c-4-0.6-8.1-1.4-11.4-3.6c-3.4-2.2-5.8-6.2-5.1-10.2c0.7-4,4.5-6.8,8.5-7.7c4-0.9,8.1-0.1,12,0.7c-1.6-7.7,3.1-15.7,9.7-20
			c6.6-4.3,14.7-5.5,22.6-5.8C501.8,981.8,514.3,983.6,526.1,987.6z" clip-rule="evenodd" class="colorfff svgShape"></path><path fill="#f6f9fc" fill-rule="evenodd" d="M445,1007.3c-3.9,0.9-7.7,3.7-8.5,7.7c-0.7,4,1.7,8,5.1,10.2c3.4,2.2,7.5,3,11.4,3.6
			c24.2,3.6,49.2,2.1,72.8-4.3c5.1,5.6,13.2,7.9,20.7,7.1c7.5-0.8,14.5-4.4,20.4-9.1c-0.6,4,2.5,7.9,6.2,9.6c3.7,1.7,7.9,1.7,12,1.7
			c40.5-0.2,81.1-0.4,121.6-0.6c8.7,0,17.4-0.1,25.9-1.8c2.2-0.4,4.6-1.1,6.1-2.7c2.4-2.6,1.9-6.9-0.2-9.8c-0.8-1.1-1.7-1.9-2.8-2.7
			c-12.3,3.6-25.9,2.3-38.7,0c-4.4-0.8-9.1-1.8-12.1-5.1c-0.5-0.6-0.9-1.2-1.3-2c-0.2,0-0.4,0.1-0.6,0.1c-6.3-10-20.9-13.6-31.1-7.7
			c4.8-7,4.3-17.1-1.1-23.6c-5.4-6.5-15.3-8.8-23.1-5.3c14.5-12.1,20.5-32.8,16.6-51.1c-1.9,12.6-6.3,24.9-14.1,34.9
			c-9.3,11.8-23.7,20-38.7,19.6c-2-15.4-12-29.6-25.9-36.7c7.5,5.7,7.7,18.2,1.3,25.1c-6.4,6.9-17.7,8.1-26.2,4
			c-8.5-4.1-14.3-12.7-16.5-21.9c-3.3-13.6,1.4-25.1,8.5-36.2c-2.8,1.1-5.7,2.6-7.9,3.7c-29,14.7-26.6,58.6,1,73.8c-3-1-6-1.9-9-2.6
			c-10,2.6-21.1,4.3-30.9,7c-10.4,2.8-20.9,9.3-24.1,19.6c-1.6-1.3-3.3-2.6-5.1-3.7v0C453.1,1007.1,449,1006.4,445,1007.3z" clip-rule="evenodd" class="colorf6f9fc svgShape"></path><path fill="#ebf4f8" fill-rule="evenodd" d="M526.1 987.6c-27.6-15.2-30-59.1-1-73.8 2.2-1.1 5.1-2.6 7.9-3.7-14.5 7.1-22 23.8-22.3 40-.1 8.4 1.3 17.2 6.8 23.6 4.9 5.7 12.6 8.6 20.1 9 7.5.5 15-1.3 22.2-3.4C551.2 987.3 536.3 993.3 526.1 987.6zM652.1 1001.3c4.8-7 4.3-17.1-1.1-23.6-5.4-6.5-15.3-8.8-23.1-5.3 5.7-1 11.2 4.3 12.3 10 1.1 5.7-1.2 11.6-4.6 16.3-1.4 1.9-3.1 3.8-5.2 5-3.2 1.8-7 1.9-10.7 1.7-8.4-.4-17.9-2.8-21.7-10.2-.7 5.8 3.2 11.3 8.3 14.1 5.1 2.8 11.1 3.4 16.9 3.5 5.5.1 11-.1 16.3-1.7C644.6 1009.4 649 1005.8 652.1 1001.3zM738.7 1018.7c2.1 2.8 2.6 7.2.2 9.8-1.5 1.7-3.9 2.3-6.1 2.7-8.5 1.7-17.2 1.7-25.9 1.8-40.5.2-81.1.4-121.6.6-4.1 0-8.3 0-12-1.7-3.7-1.7-6.8-5.5-6.2-9.6 6.4 4.5 14.1 5.4 21.9 5.7 9.5.4 19.1.3 28.4-1.9 9.3-2.2 18.2-6.8 24-14.3.7 6.2-2.4 12.7-7.6 16.1 27.4-3.4 55.2-.2 82.8-.7C724.6 1027 735.7 1026.2 738.7 1018.7zM567 1022.3c-5.9 4.7-12.9 8.3-20.4 9.1-7.5.8-15.6-1.5-20.7-7.1-23.6 6.4-48.6 7.9-72.8 4.3-4-.6-8.1-1.4-11.4-3.6-3.4-2.2-5.8-6.2-5.1-10.2 3.2 6.2 11.7 7.6 18.7 8.2 8.1.7 16.3.1 24.1-1.7-3.7-.8-7.1-2.7-9.7-5.5 21.6 5.3 44.9 3.3 65.3-5.4-.9 4 1.6 8.1 5.2 10.1 3.5 2 7.9 2.1 11.8 1.3 13.2-2.5 23.7-15 24-28.4C578.1 1003.2 574.9 1016.1 567 1022.3z" clip-rule="evenodd" class="colorebf4f8 svgShape"></path><path fill="#ffffff" fill-rule="evenodd" d="M1118.9,711.6c-27.6-15.2-30-59.1-1-73.8c3.6-1.8,8.9-4.6,12.8-5.2c2-0.3,15.2,1.4,15,4.4
			c0.5-10,7.9-18.6,16.6-23.7c21.8-12.8,52.9-6.1,67.5,14.6c14.5,20.7,10.3,52.3-9.1,68.4c7.7-3.5,17.6-1.2,23.1,5.3
			c5.4,6.5,5.9,16.7,1.1,23.6c10.2-5.9,24.8-2.3,31.1,7.7c15.5-3.3,32-2,46.7,3.9c3.3,1.3,6.6,2.9,8.7,5.8c2.1,2.8,2.6,7.2,0.2,9.8
			c-1.5,1.7-3.9,2.3-6.1,2.7c-8.5,1.7-17.2,1.7-25.9,1.8c-40.5,0.2-81.1,0.4-121.6,0.6c-4.1,0-8.3,0-12-1.7
			c-3.7-1.7-6.8-5.5-6.2-9.6c-5.9,4.7-12.9,8.3-20.4,9.1c-7.5,0.8-15.6-1.5-20.7-7.1c-23.6,6.4-48.6,7.9-72.8,4.3
			c-4-0.6-8.1-1.4-11.4-3.6c-3.4-2.2-5.9-6.2-5.1-10.2c0.7-4,4.5-6.8,8.5-7.7c3.9-0.9,8.1-0.1,12,0.7c-1.6-7.7,3.1-15.7,9.7-20
			c6.6-4.3,14.7-5.6,22.6-5.8C1094.5,705.7,1107.1,707.6,1118.9,711.6z" clip-rule="evenodd" class="colorfff svgShape"></path><path fill="#f6f9fc" fill-rule="evenodd" d="M1037.8,731.3c-4,0.9-7.7,3.7-8.5,7.7c-0.7,4,1.7,8,5.1,10.2c3.4,2.2,7.5,3,11.4,3.6
			c24.2,3.6,49.2,2.1,72.8-4.3c5.1,5.6,13.2,7.9,20.7,7.1c7.5-0.8,14.5-4.4,20.4-9.1c-0.6,4,2.5,7.9,6.2,9.6c3.7,1.7,8,1.7,12,1.7
			c40.5-0.2,81.1-0.4,121.6-0.6c8.7,0,17.4-0.1,25.9-1.8c2.2-0.4,4.6-1.1,6.1-2.7c2.4-2.6,1.9-6.9-0.2-9.8c-0.8-1.1-1.7-1.9-2.8-2.7
			c-12.3,3.6-25.9,2.3-38.7,0c-4.4-0.8-9.1-1.8-12.1-5.1c-0.5-0.6-0.9-1.2-1.3-2c-0.2,0-0.4,0.1-0.6,0.1c-6.3-10-20.9-13.6-31.1-7.7
			c4.8-7,4.3-17.1-1.1-23.6c-5.4-6.5-15.3-8.8-23.1-5.3c14.5-12.1,20.5-32.8,16.6-51.1c-1.9,12.6-6.3,24.9-14.1,34.9
			c-9.3,11.8-23.7,20-38.7,19.6c-2-15.4-12-29.6-25.9-36.7c7.5,5.7,7.7,18.2,1.3,25.1c-6.4,6.9-17.7,8.1-26.2,4
			c-8.5-4.1-14.3-12.7-16.5-21.9c-3.3-13.7,1.4-25.1,8.5-36.2c-2.8,1.1-5.7,2.6-7.9,3.7c-29,14.7-26.6,58.6,1,73.8
			c-3-1-5.9-1.9-9-2.6c-10,2.6-21.1,4.3-30.9,7c-10.4,2.8-20.9,9.3-24.1,19.6c-1.6-1.3-3.3-2.5-5.1-3.7l0,0
			C1045.9,731.1,1041.8,730.4,1037.8,731.3z" clip-rule="evenodd" class="colorf6f9fc svgShape"></path><path fill="#ebf4f8" fill-rule="evenodd" d="M1118.9 711.6c-27.6-15.2-30-59.1-1-73.8 2.2-1.1 5.1-2.6 7.9-3.7-14.5 7.1-22 23.8-22.3 39.9-.1 8.4 1.3 17.2 6.8 23.6 4.9 5.7 12.5 8.6 20.1 9 7.5.5 15-1.3 22.2-3.4C1144 711.2 1129.1 717.3 1118.9 711.6zM1244.9 725.3c4.8-7 4.3-17.1-1.1-23.6-5.4-6.5-15.3-8.8-23.1-5.3 5.7-1 11.2 4.3 12.3 10 1.1 5.7-1.2 11.6-4.6 16.3-1.4 1.9-3.1 3.8-5.2 5-3.2 1.8-7.1 1.9-10.7 1.7-8.4-.4-17.9-2.8-21.7-10.2-.7 5.8 3.2 11.3 8.3 14.1 5.1 2.8 11.1 3.4 16.9 3.5 5.5.1 11-.1 16.3-1.7C1237.4 733.4 1241.8 729.8 1244.9 725.3zM1331.5 742.7c2.1 2.8 2.6 7.2.2 9.8-1.5 1.7-3.9 2.3-6.1 2.7-8.5 1.7-17.2 1.7-25.9 1.8-40.5.2-81.1.4-121.6.6-4.1 0-8.3 0-12-1.7-3.7-1.7-6.8-5.5-6.2-9.6 6.4 4.5 14.1 5.4 21.9 5.7 9.5.3 19.1.3 28.4-1.9 9.3-2.2 18.2-6.8 24-14.3.7 6.2-2.4 12.7-7.6 16.1 27.4-3.4 55.2-.2 82.8-.7C1317.4 751 1328.5 750.1 1331.5 742.7zM1159.8 746.3c-5.9 4.7-12.9 8.3-20.4 9.1-7.5.8-15.6-1.5-20.7-7.1-23.6 6.4-48.6 7.9-72.8 4.3-4-.6-8.1-1.4-11.4-3.6-3.4-2.2-5.9-6.2-5.1-10.2 3.2 6.2 11.7 7.6 18.7 8.2 8.1.7 16.3.1 24.1-1.7-3.7-.8-7.1-2.7-9.7-5.5 21.6 5.3 44.9 3.4 65.3-5.4-.9 4 1.6 8.1 5.2 10.1 3.5 2 7.9 2.1 11.8 1.3 13.2-2.5 23.7-15 24-28.4C1170.9 727.2 1167.6 740.1 1159.8 746.3z" clip-rule="evenodd" class="colorebf4f8 svgShape"></path><path fill="#99a9d4" fill-rule="evenodd" d="M513.1,1398.9h150c17.5,0,31.9-14.3,31.9-31.9v-159.3c0-17.5-14.3-31.9-31.9-31.9h-150
			c-17.5,0-31.9,14.3-31.9,31.9v159.3C481.3,1384.6,495.6,1398.9,513.1,1398.9z" clip-rule="evenodd" class="color99a9d4 svgShape"></path><path fill="#aab9de" fill-rule="evenodd" d="M620.1,1398.9h43c17.5,0,31.9-14.3,31.9-31.9v-159.3c0-17.5-14.3-31.9-31.9-31.9h-77.5
			C584.6,1250.6,593,1325.2,620.1,1398.9z" clip-rule="evenodd" class="coloraab9de svgShape"></path><path fill="#99a9d4" fill-rule="evenodd" d="M814.2,1401.8h150c17.5,0,31.9-14.3,31.9-31.9v-318.9c0-17.5-14.3-31.9-31.9-31.9h-150
			c-17.5,0-31.9,14.3-31.9,31.9V1370C782.4,1387.5,796.7,1401.8,814.2,1401.8z" clip-rule="evenodd" class="color99a9d4 svgShape"></path><path fill="#aab9de" fill-rule="evenodd" d="M996.1,1370v-318.9c0-17.5-14.3-31.9-31.9-31.9h-77.5c0.4,128,8,255.9,28.5,382.6h49.1
			C981.8,1401.8,996.1,1387.5,996.1,1370z" clip-rule="evenodd" class="coloraab9de svgShape"></path><path fill="#99a9d4" fill-rule="evenodd" d="M1115.4,1404.7h150c17.5,0,31.9-14.3,31.9-31.8V894.4c0-17.5-14.3-31.9-31.9-31.9h-150
			c-17.5,0-31.9,14.3-31.9,31.9v478.4C1083.5,1390.4,1097.8,1404.7,1115.4,1404.7z" clip-rule="evenodd" class="color99a9d4 svgShape"></path><path fill="#aab9de" fill-rule="evenodd" d="M1297.2,1372.9V894.4c0-17.5-14.3-31.9-31.9-31.9h-77.5c0.9,181.4,8.1,362.5,26,542.2h51.4
			C1282.9,1404.7,1297.2,1390.4,1297.2,1372.9z" clip-rule="evenodd" class="coloraab9de svgShape"></path><path fill="#99a9d4" fill-rule="evenodd" d="M1416.5,1407.6h150c17.5,0,31.9-14.3,31.9-31.9v-638c0-17.5-14.3-31.9-31.9-31.9h-150
			c-17.5,0-31.9,14.3-31.9,31.9v638C1384.6,1393.3,1399,1407.6,1416.5,1407.6z" clip-rule="evenodd" class="color99a9d4 svgShape"></path><path fill="#aab9de" fill-rule="evenodd" d="M1598.4,1375.8V781.4c0-21.4-1.5-41.6-4-59.1c-5.5-9.7-15.9-16.4-27.8-16.4h-77.6
			c0,234.7,6.7,469.2,25.4,701.7h52.1C1584,1407.6,1598.4,1393.3,1598.4,1375.8z" clip-rule="evenodd" class="coloraab9de svgShape"></path><path fill="#bcc9e7" fill-rule="evenodd" d="M430.8,1245.6c456.6,51.2,941.3-71.6,1294.4-360.6c-21.4-23.9-34.9-28.4-44.6-38.7
			c-1.7-4.1-5.2-13.4-2.3-14.2c58.6-16.5,124.5-29.7,171.3-51.2c12,56.5-19.6,162.3-37.5,209.7c-10.4-17.5-21.8-34.1-33.5-47.3
			c-371.9,303.9-830.3,462.8-1325.2,431.5C398.2,1348.6,401.3,1239.5,430.8,1245.6z" clip-rule="evenodd" class="colorbcc9e7 svgShape"></path><path fill="#d0d9ee" fill-rule="evenodd" d="M428.6,1231.4c456.6,51.2,941.3-71.6,1294.4-360.7c-21.4-23.9-35-28.4-44.6-38.7
			c60.8-17.3,119.9-42.9,169-65.4c12,56.5-19.6,162.3-37.5,209.8c-10.4-17.5-21.8-34.1-33.4-47.3
			c-371.9,303.9-830.3,462.8-1325.2,431.5C395.9,1334.4,399,1225.3,428.6,1231.4z" clip-rule="evenodd" class="colord0d9ee svgShape"></path><path fill="#aab9de" fill-rule="evenodd" d="M387.6,1112.2l-14.1,8.2c-4.7,2.8-6.4,8.9-3.6,13.7l3.1,5.3c3.7,6.3,2.1,9.2,0.9,10.2c-3.1,2.8-6,5.9-9,8.9
		c-0.9,0.9-3.6,3.9-10.7-0.2l-4.9-2.9c-4.8-2.8-10.9-1.1-13.7,3.6l-8.2,14.1c-2.8,4.7-1.1,10.9,3.6,13.6l4.9,2.8
		c6.7,3.9,6.5,5.9,5.7,8.8c-1.2,3.9-2.4,7.8-3.3,11.9c-0.8,3.6-0.4,6.2-9.5,6.2h-5.6c-5.5,0-10,4.5-10,10v16.3c0,5.5,4.5,10,10,10
		h5.6c9.1,0,8.8,2.6,9.5,6.2c0.9,4,2.1,8,3.3,11.9c0.9,2.9,1,4.9-5.7,8.8l-4.9,2.8c-4.7,2.8-6.4,8.9-3.6,13.7l8.2,14.1
		c2.8,4.8,8.9,6.4,13.7,3.6l4.9-2.9c7.2-4.2,9.9-1.1,10.7-0.2c2.9,3,5.8,6.1,9,8.9c1.1,1,2.7,3.9-0.9,10.2l-3.1,5.3
		c-2.8,4.7-1.1,10.9,3.6,13.6l14.1,8.2c4.8,2.8,10.9,1.1,13.7-3.6l3.1-5.3c3.7-6.4,7.4-6.2,8.9-5.7c4.5,1.4,8.6,2.4,13.3,3.6
		c1.7,0.4,4.6,1.7,4.6,9.3v5.7c0,5.5,4.5,10,10,10h16.3c5.5,0,10-4.5,10-10v-5.7c0-7.6,2.9-8.9,4.6-9.3c4.6-1.2,8.8-2.1,13.3-3.6
		c1.5-0.5,5.2-0.7,8.9,5.7l3.1,5.3c2.8,4.8,8.9,6.4,13.6,3.6l14.1-8.2c4.7-2.8,6.4-8.9,3.6-13.6l-3.1-5.3c-3.7-6.3-2.1-9.2-0.9-10.2
		c3.1-2.8,6-5.9,9-8.9c0.9-0.9,3.6-3.9,10.7,0.2l4.9,2.9c4.8,2.8,10.9,1.1,13.7-3.6l8.2-14.1c2.8-4.7,1.1-10.9-3.6-13.7l-4.9-2.8
		c-6.7-3.9-6.5-5.9-5.7-8.8c1.2-3.9,2.4-7.8,3.3-11.9c0.8-3.6,0.4-6.2,9.6-6.2h5.6c5.5,0,10-4.5,10-10v-16.3c0-5.5-4.5-10-10-10
		h-5.6c-9.1,0-8.8-2.6-9.6-6.2c-0.8-4.1-2.1-8-3.3-11.9c-0.9-2.9-1-4.9,5.7-8.8l4.9-2.8c4.8-2.8,6.4-8.9,3.6-13.6l-8.2-14.1
		c-2.8-4.7-8.9-6.4-13.7-3.6l-4.9,2.9c-7.2,4.2-9.9,1.1-10.7,0.2c-2.9-3-5.8-6.1-9-8.9c-1.1-1-2.7-3.9,0.9-10.2l3.1-5.3
		c2.8-4.8,1.1-10.9-3.6-13.7l-14.1-8.2c-4.7-2.8-10.9-1.1-13.6,3.6l-3.1,5.3c-3.7,6.4-7.4,6.1-8.9,5.7c-4.5-1.4-8.6-2.4-13.3-3.6
		c-1.7-0.4-4.6-1.7-4.6-9.3v-5.7c0-5.5-4.5-10-10-10h-16.3c-5.5,0-10,4.5-10,10v5.7c0,7.6-2.9,8.9-4.6,9.3
		c-4.6,1.2-8.8,2.1-13.3,3.6c-1.6,0.5-5.2,0.7-8.9-5.7l-3.1-5.3C398.5,1111.1,392.3,1109.5,387.6,1112.2L387.6,1112.2z M449.3,1213
		c11.9,0,21.5,9.6,21.5,21.5c0,11.9-9.6,21.5-21.5,21.5c-11.9,0-21.5-9.6-21.5-21.5C427.8,1222.7,437.4,1213,449.3,1213L449.3,1213z
		 M381.8,1234.5c0-2.5,2.1-4.6,4.6-4.6c2.5,0,4.6,2.1,4.6,4.6c0,16.1,6.5,30.6,17.1,41.2c10.5,10.5,25.1,17.1,41.2,17.1
		c2.5,0,4.6,2.1,4.6,4.6c0,2.5-2.1,4.6-4.6,4.6c-18.6,0-35.5-7.5-47.7-19.7C389.4,1270,381.8,1253.2,381.8,1234.5L381.8,1234.5z
		 M515.8,1223.7c0.4,2.5-1.3,4.9-3.8,5.2c-2.5,0.4-4.9-1.3-5.2-3.8c-2-12.2-7.8-23.1-16.1-31.5c-8.3-8.4-19.2-14.3-31.4-16.4
		c-2.5-0.4-4.2-2.8-3.8-5.3c0.4-2.5,2.8-4.2,5.3-3.8c14.1,2.4,26.7,9.3,36.4,19C506.8,1196.8,513.5,1209.5,515.8,1223.7
		L515.8,1223.7z M449.3,1154.6c44.1,0,79.9,35.8,79.9,79.9c0,44.1-35.8,79.9-79.9,79.9c-44.1,0-79.9-35.8-79.9-79.9
		C369.4,1190.4,405.1,1154.6,449.3,1154.6z" clip-rule="evenodd" class="coloraab9de svgShape"></path><g fill="#000000" class="color000 svgShape"><path fill="#c19274" fill-rule="evenodd" d="M1524.5 411.8h98.9c7.5 0 14.7 6.2 13.7 13.7-17.6 131-96.4 147.3-112.6 147.4V411.8L1524.5 411.8zM1535.6 422.9V560c2.5-.7 5-1.5 7.1-2.2 11.1-4 21.4-10.3 30.4-18 29.5-25.2 44.1-64.4 50.9-102.1.8-4.5 1.5-9.1 2.1-13.5-.4-.7-1.9-1.3-2.7-1.3H1535.6zM1465.7 411.8h-98.9c-7.5 0-14.7 6.2-13.7 13.7 17.6 131 96.4 147.3 112.6 147.4V411.8L1465.7 411.8zM1454.6 422.9V560c-2.5-.7-5-1.5-7.1-2.2-11.1-4-21.4-10.3-30.4-18-29.5-25.2-44.1-64.4-50.9-102.1-.8-4.5-1.5-9.1-2.1-13.5.4-.7 1.9-1.3 2.7-1.3H1454.6z" clip-rule="evenodd" class="colorc19274 svgShape"></path><path fill="#e3bb9b" fill-rule="evenodd" d="M1404.2,402.1c62.8-3.7,120-4.5,181.5-0.6c1.9,74.8-30.9,199.3-90.5,199.3l0,0
			C1434.8,600.8,1402.6,476.7,1404.2,402.1z" clip-rule="evenodd" class="colore3bb9b svgShape"></path><path fill="#e3bb9b" fill-rule="evenodd" d="M1479.3,594.5h31.4v11.3c0,6.2-5.1,11.3-11.3,11.3h-8.8c-6.2,0-11.3-5.1-11.3-11.3V594.5z" clip-rule="evenodd" class="colore3bb9b svgShape"></path><polygon fill="#c19274" fill-rule="evenodd" points="1495 651.5 1503.1 657.4 1511.1 663.2 1478.8 663.2 1486.8 657.4" clip-rule="evenodd" class="colorc19274 svgShape"></polygon><rect width="14.2" height="60.4" x="1487.9" y="611.9" fill="#e3bb9b" fill-rule="evenodd" clip-rule="evenodd" class="colore3bb9b svgShape"></rect><path fill="#c19274" fill-rule="evenodd" d="M1495,652c6.8,0,12.3-2.7,12.3-6s-5.5-6-12.3-6c-6.8,0-12.3,2.7-12.3,6S1488.2,652,1495,652z" clip-rule="evenodd" class="colorc19274 svgShape"></path><rect width="39.8" height="10.7" x="1475.2" y="663.2" fill="#e3bb9b" fill-rule="evenodd" clip-rule="evenodd" class="colore3bb9b svgShape"></rect><rect width="57" height="10.7" x="1466.6" y="673.9" fill="#c19274" fill-rule="evenodd" clip-rule="evenodd" class="colorc19274 svgShape"></rect><rect width="82.4" height="25.6" x="1453.9" y="684.5" fill="#e3bb9b" fill-rule="evenodd" clip-rule="evenodd" class="colore3bb9b svgShape"></rect></g><path fill="#ffffff" fill-rule="evenodd" d="M918.4 615.3c-1.4 18.6-4.1 21.2-21.8 22.6 17.8 1.4 20.5 4 21.8 22.6 1.4-18.6 4.1-21.2 21.9-22.6C922.5 636.5 919.7 633.9 918.4 615.3zM1433.5 428.8c-1.4 18.6-4.1 21.2-21.9 22.6 17.8 1.4 20.5 4 21.9 22.6 1.4-18.6 4.1-21.2 21.8-22.6C1437.6 450 1434.9 447.4 1433.5 428.8zM1491.4 534.2c-1.4 18.6-4.1 21.2-21.9 22.6 17.8 1.4 20.5 4 21.9 22.6 1.4-18.6 4.1-21.2 21.9-22.6C1495.5 555.4 1492.8 552.9 1491.4 534.2zM1302.1 797.6c-1.4 18.6-4.1 21.2-21.9 22.6 17.8 1.4 20.5 4 21.9 22.6 1.4-18.6 4.1-21.2 21.9-22.6C1306.2 818.8 1303.4 816.3 1302.1 797.6zM422.8 902c-1.4 18.6-4.1 21.2-21.8 22.6 17.7 1.4 20.5 4 21.8 22.6 1.4-18.6 4.1-21.2 21.9-22.6C426.9 923.2 424.2 920.6 422.8 902zM1768.6 824c-2.2 29.7-6.5 33.8-34.9 36.1 28.4 2.3 32.7 6.4 34.9 36.1 2.2-29.7 6.6-33.8 34.9-36.1C1775.1 857.8 1770.7 853.7 1768.6 824zM808.5 1250.6c-2.2 29.7-6.5 33.8-34.9 36.1 28.4 2.3 32.7 6.4 34.9 36.1 2.2-29.7 6.6-33.8 34.9-36.1C815 1284.5 810.7 1280.4 808.5 1250.6z" clip-rule="evenodd" class="colorfff svgShape"></path><g fill="#000000" class="color000 svgShape"><path fill="#e9eff8" fill-rule="evenodd" d="M504.3,601.3c-20.5-11.3-22.3-44-0.7-54.9c2.7-1.3,6.6-3.4,9.6-3.9c1.5-0.2,11.3,1,11.2,3.2
			c0.4-7.5,5.9-13.9,12.4-17.7c16.2-9.5,39.4-4.5,50.2,10.9c10.8,15.4,7.7,38.9-6.8,50.9c5.8-2.6,13.1-0.9,17.2,4
			c4,4.8,4.4,12.4,0.8,17.6c7.6-4.4,18.5-1.7,23.2,5.7c11.5-2.5,23.8-1.5,34.8,2.9c2.5,1,4.9,2.2,6.5,4.3c1.6,2.1,1.9,5.3,0.2,7.3
			c-1.1,1.2-2.9,1.7-4.5,2c-6.3,1.3-12.8,1.3-19.3,1.3c-30.2,0.1-60.3,0.3-90.5,0.4c-3,0-6.2,0-9-1.2c-2.8-1.3-5.1-4.1-4.6-7.1
			c-4.4,3.5-9.6,6.2-15.2,6.8c-5.6,0.6-11.6-1.1-15.4-5.3c-17.6,4.8-36.2,5.9-54.2,3.2c-3-0.4-6-1-8.5-2.7c-2.5-1.6-4.4-4.6-3.8-7.6
			c0.6-3,3.4-5.1,6.3-5.7c2.9-0.6,6-0.1,8.9,0.5c-1.2-5.7,2.3-11.7,7.2-14.9c4.9-3.2,11-4.1,16.8-4.3
			C486.2,596.9,495.5,598.3,504.3,601.3z" clip-rule="evenodd" class="colore9eff8 svgShape"></path><path fill="#e9eff8" fill-rule="evenodd" d="M443.9,615.9c-2.9,0.6-5.8,2.8-6.3,5.7c-0.6,3,1.3,5.9,3.8,7.6c2.5,1.7,5.5,2.2,8.5,2.7
			c18,2.6,36.6,1.5,54.2-3.2c3.8,4.1,9.8,5.9,15.4,5.3c5.6-0.6,10.8-3.3,15.2-6.8c-0.4,3,1.9,5.9,4.6,7.1c2.8,1.3,5.9,1.3,9,1.2
			c30.2-0.1,60.4-0.3,90.5-0.4c6.5,0,13-0.1,19.3-1.3c1.7-0.3,3.4-0.8,4.5-2c1.8-1.9,1.4-5.2-0.2-7.3c-0.6-0.8-1.3-1.4-2.1-2
			c-9.2,2.7-19.3,1.7-28.8,0c-3.3-0.6-6.7-1.4-9-3.8c-0.4-0.4-0.7-0.9-1-1.5c-0.1,0-0.3,0.1-0.4,0.1c-4.7-7.4-15.5-10.1-23.2-5.7
			c3.6-5.2,3.2-12.8-0.8-17.6c-4-4.8-11.4-6.5-17.2-4c10.8-9,15.3-24.4,12.3-38c-1.4,9.4-4.7,18.5-10.5,26
			c-6.9,8.8-17.7,14.9-28.8,14.6c-1.5-11.5-8.9-22-19.3-27.3c5.6,4.3,5.7,13.6,1,18.7c-4.8,5.2-13.1,6-19.5,3
			c-6.3-3.1-10.6-9.5-12.3-16.3c-2.5-10.2,1-18.7,6.3-26.9c-2.1,0.8-4.2,1.9-5.9,2.8c-21.6,11-19.8,43.6,0.7,54.9
			c-2.2-0.7-4.4-1.4-6.7-1.9c-7.4,2-15.7,3.2-23,5.2c-7.8,2.1-15.6,6.9-17.9,14.6c-1.2-1-2.5-1.9-3.8-2.7l0,0
			C449.9,615.8,446.9,615.3,443.9,615.9z" clip-rule="evenodd" class="colore9eff8 svgShape"></path><path fill="#dce6f2" fill-rule="evenodd" d="M504.3 601.3c-20.5-11.3-22.3-44-.7-54.9 1.6-.8 3.8-1.9 5.9-2.8-10.8 5.3-16.4 17.7-16.6 29.7-.1 6.2 1 12.8 5 17.5 3.7 4.2 9.3 6.4 14.9 6.7 5.6.3 11.2-.9 16.5-2.6C523 601 511.9 605.5 504.3 601.3zM598.1 611.5c3.6-5.2 3.2-12.8-.8-17.6-4-4.8-11.4-6.5-17.2-4 4.3-.8 8.3 3.2 9.2 7.5s-.9 8.6-3.5 12.1c-1.1 1.5-2.3 2.8-3.9 3.7-2.4 1.3-5.2 1.4-8 1.3-6.2-.3-13.3-2.1-16.2-7.6-.5 4.3 2.4 8.4 6.2 10.5 3.8 2.1 8.2 2.5 12.5 2.6 4.1.1 8.2-.1 12.1-1.3C592.5 617.5 595.8 614.9 598.1 611.5zM662.5 624.4c1.6 2.1 1.9 5.3.2 7.3-1.1 1.2-2.9 1.7-4.5 2-6.3 1.3-12.8 1.3-19.3 1.3-30.2.1-60.3.3-90.5.4-3 0-6.2 0-9-1.2-2.8-1.3-5.1-4.1-4.6-7.1 4.8 3.4 10.5 4 16.3 4.2 7.1.3 14.2.3 21.1-1.4 6.9-1.7 13.5-5.1 17.9-10.7.5 4.6-1.8 9.5-5.7 12 20.4-2.5 41.1-.1 61.7-.5C652.1 630.6 660.3 630 662.5 624.4zM534.7 627.1c-4.4 3.5-9.6 6.2-15.2 6.8-5.6.6-11.6-1.1-15.4-5.3-17.6 4.8-36.2 5.9-54.2 3.2-3-.4-6-1-8.5-2.7-2.5-1.6-4.4-4.6-3.8-7.6 2.4 4.7 8.7 5.7 13.9 6.1 6 .5 12.1.1 18-1.3-2.8-.6-5.3-2-7.2-4.1 16.1 3.9 33.4 2.5 48.6-4-.6 2.9 1.2 6 3.8 7.5 2.6 1.5 5.8 1.6 8.8 1 9.8-1.9 17.7-11.2 17.9-21.2C543 612.9 540.6 622.5 534.7 627.1z" clip-rule="evenodd" class="colordce6f2 svgShape"></path></g><g fill="#000000" class="color000 svgShape"><path fill="#e9eff8" fill-rule="evenodd" d="M304.4,719.8c-27.6-15.2-30-59-1-73.8c3.6-1.8,8.9-4.6,12.8-5.2c2-0.3,15.2,1.4,15,4.4
			c0.5-10.1,7.9-18.6,16.6-23.7c21.8-12.8,52.9-6.1,67.5,14.6c14.5,20.7,10.3,52.3-9.1,68.4c7.7-3.5,17.6-1.2,23.1,5.3
			c5.4,6.5,5.9,16.7,1.1,23.6c10.2-5.9,24.8-2.3,31.1,7.7c15.5-3.3,32-2,46.7,3.9c3.3,1.3,6.6,2.9,8.7,5.8c2.1,2.8,2.6,7.2,0.2,9.8
			c-1.5,1.7-3.9,2.3-6.1,2.7c-8.5,1.7-17.2,1.7-25.9,1.8c-40.5,0.2-81.1,0.4-121.6,0.6c-4.1,0-8.3,0-12-1.7
			c-3.7-1.7-6.8-5.5-6.2-9.6c-5.9,4.7-12.9,8.3-20.4,9.1c-7.5,0.8-15.6-1.5-20.7-7.1c-23.6,6.4-48.6,7.9-72.8,4.3
			c-4-0.6-8.1-1.4-11.4-3.6c-3.4-2.2-5.8-6.2-5.1-10.2c0.7-4,4.5-6.8,8.5-7.7c4-0.9,8.1-0.1,12,0.7c-1.6-7.7,3.1-15.7,9.7-20
			c6.6-4.3,14.7-5.5,22.6-5.8C280.1,713.9,292.6,715.8,304.4,719.8z" clip-rule="evenodd" class="colore9eff8 svgShape"></path><path fill="#e9eff8" fill-rule="evenodd" d="M223.3,739.5c-3.9,0.9-7.7,3.7-8.5,7.7c-0.7,4,1.7,8,5.1,10.2c3.4,2.2,7.5,3,11.4,3.6
			c24.2,3.6,49.2,2.1,72.8-4.3c5.1,5.6,13.2,7.9,20.7,7.1c7.5-0.8,14.5-4.4,20.4-9.1c-0.6,4,2.5,7.9,6.2,9.6c3.7,1.7,8,1.7,12,1.7
			c40.5-0.2,81.1-0.4,121.6-0.6c8.7,0,17.4-0.1,25.9-1.8c2.2-0.4,4.6-1.1,6.1-2.7c2.4-2.6,1.9-6.9-0.2-9.8c-0.8-1-1.7-1.9-2.8-2.7
			c-12.3,3.6-25.9,2.3-38.7,0c-4.4-0.8-9.1-1.8-12.1-5.1c-0.5-0.6-0.9-1.2-1.3-2c-0.2,0-0.4,0.1-0.6,0.1c-6.3-10-20.9-13.6-31.1-7.7
			c4.8-7,4.3-17.1-1.1-23.6c-5.4-6.5-15.3-8.8-23.1-5.3c14.5-12.1,20.5-32.8,16.6-51.1c-1.9,12.6-6.3,24.9-14.1,34.9
			c-9.3,11.8-23.7,20-38.7,19.6c-2-15.4-12-29.6-25.9-36.7c7.5,5.7,7.7,18.2,1.3,25.1c-6.4,6.9-17.7,8.1-26.2,4
			c-8.5-4.1-14.3-12.7-16.5-21.9c-3.3-13.6,1.4-25.1,8.5-36.2c-2.8,1.1-5.7,2.6-7.9,3.7c-29,14.7-26.6,58.6,1,73.8c-3-1-6-1.9-9-2.6
			c-10,2.6-21.1,4.3-30.9,7c-10.4,2.8-20.9,9.3-24.1,19.6c-1.6-1.3-3.3-2.6-5.1-3.7l0,0C231.4,739.3,227.3,738.6,223.3,739.5z" clip-rule="evenodd" class="colore9eff8 svgShape"></path><path fill="#dce6f2" fill-rule="evenodd" d="M304.4 719.8c-27.6-15.2-30-59-1-73.8 2.2-1.1 5.1-2.6 7.9-3.7-14.5 7.1-22 23.8-22.3 40-.1 8.4 1.3 17.2 6.8 23.6 4.9 5.7 12.6 8.6 20.1 9 7.5.5 15-1.3 22.2-3.4C329.5 719.4 314.6 725.5 304.4 719.8zM430.4 733.5c4.8-7 4.3-17.1-1.1-23.6-5.4-6.5-15.3-8.8-23.1-5.3 5.7-1.1 11.1 4.3 12.3 10 1.1 5.7-1.2 11.6-4.6 16.3-1.4 1.9-3.1 3.8-5.2 5-3.2 1.8-7 1.9-10.7 1.7-8.4-.4-17.9-2.8-21.7-10.2-.7 5.7 3.2 11.3 8.3 14.1 5.1 2.8 11.1 3.4 16.9 3.5 5.5.1 11-.1 16.3-1.7C422.9 741.6 427.3 738 430.4 733.5zM517 750.9c2.1 2.8 2.6 7.2.2 9.8-1.5 1.7-3.9 2.3-6.1 2.7-8.5 1.7-17.2 1.7-25.9 1.8-40.5.2-81.1.4-121.6.6-4.1 0-8.3 0-12-1.7-3.7-1.7-6.8-5.5-6.2-9.6 6.4 4.5 14.1 5.4 21.9 5.7 9.5.4 19.1.3 28.4-1.9 9.3-2.2 18.2-6.8 24-14.3.7 6.2-2.4 12.7-7.6 16.1 27.4-3.4 55.2-.2 82.8-.7C502.9 759.2 514 758.3 517 750.9zM345.3 754.5c-5.9 4.7-12.9 8.3-20.4 9.1-7.5.8-15.6-1.5-20.7-7.1-23.6 6.4-48.6 7.9-72.8 4.3-4-.6-8.1-1.4-11.4-3.6-3.4-2.2-5.8-6.2-5.1-10.2 3.2 6.2 11.7 7.6 18.7 8.2 8.1.7 16.3.1 24.1-1.7-3.7-.8-7.1-2.7-9.7-5.5 21.6 5.3 44.9 3.3 65.3-5.4-.9 4 1.6 8.1 5.2 10.1 3.5 2 7.9 2.1 11.8 1.3 13.2-2.5 23.7-15 24-28.5C356.4 735.4 353.2 748.3 345.3 754.5z" clip-rule="evenodd" class="colordce6f2 svgShape"></path></g><path fill="#aab9de" fill-rule="evenodd" d="M284.7,1312.1l-9.3,3.5c-3.1,1.2-4.7,4.7-3.5,7.8l1.3,3.5c1.6,4.1,0.3,5.7-0.5,6.2c-2.2,1.4-4.2,2.9-6.3,4.4
		c-0.6,0.4-2.5,2-6.4-1.2l-2.7-2.2c-2.6-2.1-6.4-1.8-8.5,0.8l-6.3,7.6c-2.1,2.6-1.8,6.4,0.8,8.5l2.6,2.2c3.6,3,3.3,4.2,2.5,5.8
		c-1.1,2.2-2.2,4.4-3.2,6.8c-0.8,2.1-0.9,3.7-6.3,2.7l-3.4-0.6c-3.3-0.6-6.4,1.7-7,5l-1.6,9.8c-0.6,3.3,1.7,6.4,5,7l3.4,0.6
		c5.5,0.9,5,2.4,5.1,4.7c0.1,2.5,0.5,5,0.8,7.4c0.2,1.8,0.1,3-4.3,4.7l-3.2,1.2c-3.1,1.2-4.7,4.7-3.5,7.8l3.5,9.3
		c1.2,3.1,4.7,4.7,7.8,3.5l3.2-1.2c4.7-1.8,6,0.3,6.5,0.9c1.4,2.1,2.9,4.2,4.5,6.2c0.6,0.7,1.3,2.6-1.6,6l-2.4,2.9
		c-2.1,2.6-1.8,6.4,0.8,8.5l7.6,6.3c2.6,2.1,6.4,1.8,8.5-0.8l2.4-2.9c2.9-3.5,5-2.9,5.9-2.5c2.5,1.3,4.9,2.3,7.6,3.5
		c1,0.4,2.6,1.5,1.8,6l-0.6,3.4c-0.6,3.3,1.7,6.4,5,7l9.8,1.6c3.3,0.5,6.4-1.7,7-5l0.6-3.4c0.8-4.6,2.6-5,3.7-5.1
		c2.9-0.3,5.5-0.4,8.3-0.8c1-0.1,3.2,0.1,4.8,4.3l1.3,3.5c1.2,3.1,4.7,4.7,7.8,3.5l9.3-3.5c3.1-1.2,4.7-4.7,3.5-7.8l-1.3-3.5
		c-1.6-4.1-0.3-5.7,0.5-6.2c2.2-1.4,4.2-2.9,6.3-4.4c0.6-0.4,2.5-2,6.4,1.2l2.7,2.2c2.6,2.1,6.4,1.8,8.5-0.8l6.3-7.6
		c2.1-2.6,1.8-6.4-0.8-8.5l-2.6-2.2c-3.6-3-3.3-4.2-2.5-5.8c1.1-2.2,2.2-4.4,3.2-6.8c0.8-2.1,0.9-3.7,6.3-2.7l3.4,0.6
		c3.3,0.6,6.4-1.7,7-5l1.6-9.8c0.6-3.3-1.7-6.4-5-7l-3.4-0.6c-5.5-0.9-5-2.4-5.1-4.7c-0.1-2.5-0.5-5-0.8-7.4c-0.2-1.8-0.1-3,4.3-4.7
		l3.2-1.2c3.1-1.2,4.7-4.7,3.5-7.8l-3.5-9.3c-1.2-3.1-4.7-4.7-7.8-3.5l-3.2,1.2c-4.7,1.8-6-0.3-6.5-0.9c-1.4-2.1-2.9-4.2-4.5-6.2
		c-0.6-0.7-1.3-2.6,1.6-6l2.4-2.9c2.1-2.6,1.8-6.4-0.8-8.5l-7.6-6.3c-2.6-2.1-6.4-1.8-8.5,0.8l-2.4,2.9c-2.9,3.5-5,2.9-5.9,2.5
		c-2.6-1.3-4.9-2.3-7.6-3.5c-1-0.4-2.6-1.5-1.8-6l0.6-3.4c0.5-3.3-1.7-6.4-5-7l-9.8-1.6c-3.3-0.6-6.4,1.7-7,5l-0.6,3.4
		c-0.8,4.6-2.6,5-3.7,5.1c-2.9,0.3-5.5,0.4-8.3,0.8c-1,0.1-3.2-0.1-4.8-4.3l-1.3-3.5C291.3,1312.5,287.8,1311,284.7,1312.1
		L284.7,1312.1z M311.5,1378.7c7.1,1.2,11.9,7.9,10.7,15c-1.2,7.1-7.9,11.9-15,10.7c-7.1-1.2-11.9-7.9-10.7-15
		C297.7,1382.3,304.4,1377.5,311.5,1378.7L311.5,1378.7z M269,1384.8c0.3-1.5,1.7-2.5,3.2-2.3c1.5,0.3,2.5,1.7,2.3,3.2
		c-1.6,9.6,0.8,19,6.1,26.4c5.3,7.4,13.3,12.7,23,14.4c1.5,0.3,2.6,1.7,2.3,3.2c-0.3,1.5-1.7,2.6-3.2,2.3
		c-11.2-1.9-20.5-8.1-26.6-16.6C269.9,1406.9,267.1,1396,269,1384.8L269,1384.8z M350.4,1391.8c0,1.5-1.3,2.8-2.8,2.8
		c-1.5,0-2.8-1.3-2.8-2.8c0-7.5-2.3-14.6-6.5-20.5c-4.1-5.9-10.1-10.5-17.2-13c-1.5-0.5-2.2-2.1-1.7-3.6c0.5-1.5,2.1-2.2,3.6-1.7
		c8.2,2.9,15.1,8.2,19.9,15C347.7,1374.8,350.4,1383.1,350.4,1391.8L350.4,1391.8z M317.4,1343.7c26.5,4.4,44.3,29.4,39.9,55.9
		c-4.4,26.4-29.5,44.3-55.9,39.9c-26.4-4.4-44.3-29.5-39.9-55.9C265.9,1357.1,290.9,1339.3,317.4,1343.7z" clip-rule="evenodd" class="coloraab9de svgShape"></path><g fill="#000000" class="color000 svgShape"><path fill="#4b5da8" fill-rule="evenodd" d="M708.2,898.7c5.2,16.2,22.6,25.1,38.8,19.9c16.2-5.2,25.1-22.6,19.9-38.8c-5.2-16.2-22.6-25.1-38.8-19.9
			C711.9,865.1,703,882.5,708.2,898.7z" clip-rule="evenodd" class="color4b5da8 svgShape"></path><path fill="#142d4d" fill-rule="evenodd" d="M600,1211.5c0,0,6.5,13.2,9.2,18.6c2.8,5.4,8,5.9,4.7,8.5c-3.3,2.6-13.1,15-14,21.4
			c-0.9,6.4-4.2,47.7-13.5,49.2c-9.2,1.5-13.8-17.4-17.1-44.2c-3.3-26.8-10.3-27-7-45.2C563.5,1214.1,600,1211.5,600,1211.5z" clip-rule="evenodd" class="color142d4d svgShape"></path><polygon fill="#eda583" fill-rule="evenodd" points="610.2 1207.5 600 1211.5 611.7 1236.3 621.7 1232.6" clip-rule="evenodd" class="coloreda583 svgShape"></polygon><path fill="#142d4d" fill-rule="evenodd" d="M1075.7,1181.1c0,0,8-12,11.3-17c3.2-5,1-9.7,4.9-8.2c3.8,1.5,19.2,3.7,25,1.3c5.9-2.4,42.5-19.9,48.3-12.8
			c5.8,7.1-7.9,20.3-29,36.3c-21.1,16-17.8,22-34.9,28.2C1095.9,1210.8,1075.7,1181.1,1075.7,1181.1z" clip-rule="evenodd" class="color142d4d svgShape"></path><polygon fill="#eda583" fill-rule="evenodd" points="1068.7 1175.9 1077.1 1182.2 1091.4 1160 1083.4 1153.8" clip-rule="evenodd" class="coloreda583 svgShape"></polygon><path fill="#0f3d86" fill-rule="evenodd" d="M830.4,1015.3c-2.1,4.8-5.2,13.6-8.5,23.7c-1.4,4.1-2.8,8.5-4.2,12.8c-6.7,21-13.1,42.4-13.1,42.4
			c0,0-31.2,84.5-49.5,95.8c-35.9,22.2-143.7,51.1-143.7,51.1l-17.2-39.2c0,0,60.2-18.3,84.1-31.5c27.7-15.3,47.6-18.1,52.3-43.9
			c3.1-17.2,5.8-74.9,5.8-75.5c-0.7-28.5-0.2-65.7,6.9-78.3C749.3,962,830.4,1015.3,830.4,1015.3z" clip-rule="evenodd" class="color0f3d86 svgShape"></path><path fill="#0f3d86" fill-rule="evenodd" d="M970.5,1040.9c-7.4-11.8-42.4-35.5-65.6-48.6c-36.7-21.1-62.9-39-62.9-39s-100.6,56.1-94,65.5
			c12.6,17.9,72,18.5,84.3,21.8l24.8,4.9c0,0,24.8,5.2,43.8,11.1c25.5,7.8,25.9,17.6,48.1,36.4c19.8,16.8,125.8,96.3,125.8,96.3
			l23.5-34C1098.2,1155.2,982,1059.2,970.5,1040.9z" clip-rule="evenodd" class="color0f3d86 svgShape"></path><path fill="#f4ae7c" fill-rule="evenodd" d="M931.6,801.1c0,0-8.1,5.3-13,7.3c-4.9,2-1.3-17.2-1.3-17.2L931.6,801.1z" clip-rule="evenodd" class="colorf4ae7c svgShape"></path><path fill="#f4ae7c" fill-rule="evenodd" d="M913.9,788c0,0,0.2-14.7,0.3-16.9c0.1-2.2,3.8-7.3,8.6-12.7c4.8-5.4,13.7-10.6,14.9-10.4
			c1.2,0.2,2.6-0.2,4.9,1.9c2.3,2.2,3.1,5.3,3.1,5.3s4.1,1.3,4.8,5.2c0,0,3.8,1.4,3.9,6c0,0,3.7,1.5,3.5,4.8c0,0-3.7,5-4.6,7.3
			c-0.8,2.3-12.1,14.2-21.7,22.6C931.6,801.1,922.8,803.9,913.9,788z" clip-rule="evenodd" class="colorf4ae7c svgShape"></path><path fill="#f4ae7c" fill-rule="evenodd" d="M936.5,749.3c0,0-11.8,14-9.8,16.2c2,2.2,4.1,1.8,4.1,1.8l-2.2,8c0,0,1.5,6.1,7.7,2.7c0,0,0.8,5.9,6.4,1.8
			c0,0,2.2,3.6,5.2,2.2c2.9-1.4,10.1-10.7,10.1-10.7s1-2.9-3.1-5c0,0,0.1-4.4-4-6c0,0-0.3-3.5-4.8-5.2c0,0-1.8-7.7-8.3-7.1
			C937.8,748,936.9,748.8,936.5,749.3z" clip-rule="evenodd" class="colorf4ae7c svgShape"></path><path fill="#f4ae7c" fill-rule="evenodd" d="M914.6,770.6c0,0,11.6-4.9,19.1-4.7c1.7,0,3.3,0.4,3.9,1.9c0.6,1.6-0.9,4.5-5.8,6.8
			c-4.9,2.4-10.2,7.7-10.2,7.7S915.8,783.2,914.6,770.6z" clip-rule="evenodd" class="colorf4ae7c svgShape"></path><path fill="#9aa8d0" fill-rule="evenodd" d="M759.3,798.4c0,0,46.3,30.6,75.9,41.7c9.3,3.5,74.9-54.7,78.5-53.2c3.6,1.5,14.1,23.7,14.1,23.7
			s-81.3,73.7-87.5,72.8c-6.2-0.9-97.1-43.8-104.3-52.2c-7.2-8.3-11.1-20.2-3.2-28.9C743.8,789.9,759.3,798.4,759.3,798.4z" clip-rule="evenodd" class="color9aa8d0 svgShape"></path><path fill="#e9eff8" fill-rule="evenodd" d="M770.5,768c0,0,21.5,29.1,27.5,47.7c6,18.6,7.5,71.9,10.5,82.4c3,10.5,33.5,55.2,33.5,55.2L739.3,1018
			c0,0-12.3-28.6-23-64.1c-10.7-35.6-9.7-67.9-13.6-88.9c-13.3-71.8,38.4-105.2,38.4-105.2L770.5,768z" clip-rule="evenodd" class="colore9eff8 svgShape"></path><path fill="#f4ae7c" fill-rule="evenodd" d="M792.1,672.4c0,0,14.7,14.2,11,18.4c-3.1,3.4,10.5,17.7,12.4,20.1c2,2.4-5.4,6.9-6.5,9.2
			c-1.1,2.3,0.8,25.7-5.5,28.4c-6.3,2.7-39.1,1.8-49.8-4c-10.7-5.8-29.2-41.4-28.9-59.1C725.1,667.9,766.2,647.6,792.1,672.4z" clip-rule="evenodd" class="colorf4ae7c svgShape"></path><path fill="#f4ae7c" fill-rule="evenodd" d="M782.3,750.1c0,0-0.2,2-0.5,5.1c-0.1,1.3-0.3,2.8-0.4,4.4c-0.1,1.2-0.2,2.5-0.3,3.9
			c-0.7,8.4-1.2,18.5-0.2,23.2c1.7,8.7-35.8-27.9-35.8-27.9s3.1-28.4,1.5-60.4C744.9,666.3,782.3,750.1,782.3,750.1z" clip-rule="evenodd" class="colorf4ae7c svgShape"></path><path fill="#0f3970" fill-rule="evenodd" d="M795.1,675.6c0,0,3.6-21.6-18-29.9c-21.5-8.3-45.6,25.9-48.8,27.9c-3.3,2.1-23.3,10-1.6,42.2
			c19.1,28.3,19.5,26.6,19.5,26.6s1.5-17.7,4.4-21.6c4.5-6.1,17.5-9.1,17.5-9.1s-11.2-14.2-2.4-19.4
			C774.5,687,784.4,675.1,795.1,675.6z" clip-rule="evenodd" class="color0f3970 svgShape"></path><path fill="#f4ae7c" fill-rule="evenodd" d="M755.1,705.8c-1.5-1.9-7.3-10.6-13.6-2.4c-6.4,8.2,12.5,21.8,14,21.6C757,724.7,768.1,722.1,755.1,705.8z" clip-rule="evenodd" class="colorf4ae7c svgShape"></path><path fill="#e9eff8" fill-rule="evenodd" d="M745.5,754.2c0,0,23,21.6,36.6,26.3l2.3,17.8l-43.3-38.6L745.5,754.2z" clip-rule="evenodd" class="colore9eff8 svgShape"></path><polygon fill="#9d7558" fill-rule="evenodd" points="842 953.3 835.6 943.9 734.7 1006.8 739.7 1018.9" clip-rule="evenodd" class="color9d7558 svgShape"></polygon><path fill="#8d9fca" fill-rule="evenodd" d="M794.8,831.5c-0.3,6.9-0.4,13.8-0.4,20.8l0,0c0.1,15.2,0.8,30.4,2,45c0.4,5.2,0.9,10.4,1.5,15.4
			c6.4,60.3-10.7,111.6-10.7,111.6s-46.6,10.8-59.6,6.6c0,0-17.8-66.2-23.2-133.7c-0.4-5.2-0.8-10.4-1-15.6l0,0
			c-8-58.5,4.4-107.4,37.7-121.9C742,760.3,796.3,795.3,794.8,831.5z" clip-rule="evenodd" class="color8d9fca svgShape"></path><path fill="#9aa8d0" fill-rule="evenodd" d="M704.8,902.1c0,0,12.7,67.6-1.9,131.6c-2,8.7,54.2-3.8,54.2-3.8L704.8,902.1z" clip-rule="evenodd" class="color9aa8d0 svgShape"></path><path fill="#ed7d5b" fill-rule="evenodd" d="M782.3,750.1c0,0-0.2,2-0.5,5.1c-0.1,1.3-0.3,2.8-0.4,4.4c-19.5-6.7-25.9-14-26.1-14.2
			C764.3,748.3,782.3,750.1,782.3,750.1z" clip-rule="evenodd" class="colored7d5b svgShape"></path><path fill="#406fb5" fill-rule="evenodd" d="M782.2,781.5c0,0,7.3,10.3,7.8,14.8c0.2,1.7-5.8,0.9-5.8,0.9L782.2,781.5z" clip-rule="evenodd" class="color406fb5 svgShape"></path><path fill="#0f3970" fill-rule="evenodd" d="M821.9,1039c-1.4,4.1-2.8,8.5-4.2,12.8l-49.5-21.4c0.4,0.1,6.3,1.7,14,3.4
			C790.2,1035.5,821.9,1039,821.9,1039z" clip-rule="evenodd" class="color0f3970 svgShape"></path><path fill="#9aa8d0" fill-rule="evenodd" d="M749.6,802.2c0,0-46.4,63.3-60.4,94.9c-4.4,9.9-22.5,101.1-24.4,104.9s-34.8,3-34.8,3s20-113.4,21.4-120.1
			c1.4-6.7,65.9-108.5,75.4-115.7c9.6-7.3,13-5.1,22,4.1C761.6,786,749.6,802.2,749.6,802.2z" clip-rule="evenodd" class="color9aa8d0 svgShape"></path><path fill="#0f3d86" fill-rule="evenodd" d="M789.1,795.8c0,0,6.9,42.7-27.3,56.7c-30.7,12.5-71.3,42.8-82.3,59.6l-13.2,21.8l-2.3-22.6
			c0,0,2.6-37.8,96.2-62.8c0,0,30-3.7,23.6-55.8C783.7,792.7,789.1,793.6,789.1,795.8z" clip-rule="evenodd" class="color0f3d86 svgShape"></path><polygon fill="#e3bb9b" fill-rule="evenodd" points="577.5 1038.2 560.3 1176 712.2 1185.5 715 1061.4" clip-rule="evenodd" class="colore3bb9b svgShape"></polygon><path fill="#9d7558" fill-rule="evenodd" d="M538.3 1155c11.3 6.5 17.2 13.7 22 21.1l17.2-137.8-6.7-1.3L538.3 1155zM577.5 1038.2l8.1 57.8c1.5 6.5 3.1 12.3 13.4 13.1l96.8 10.1c8.6.9 9.6-3.4 10.6-9.2l8.2-48.7L577.5 1038.2z" clip-rule="evenodd" class="color9d7558 svgShape"></path><path fill="#ffffff" fill-rule="evenodd" d="M637.2,1105.6l24.6,2.5c1.4,0.1,2.5,1.3,2.5,2.7l-0.3,22.2c0,1.4-1.1,2.5-2.4,2.4l-25.8-1.7
			c-1.3-0.1-2.6-1.3-2.5-2.7l1.5-23C634.9,1106.6,635.9,1105.5,637.2,1105.6z" clip-rule="evenodd" class="colorfff svgShape"></path><polygon fill="#9d7558" fill-rule="evenodd" points="640.8 1112.2 639.8 1127.7 657.9 1128.9 658.1 1114" clip-rule="evenodd" class="color9d7558 svgShape"></polygon><path fill="#9d7558" fill-rule="evenodd" d="M606.1,1043.1c2.4-5.1,6.6-8.9,11.9-11.6c2.3-1.2,4.8-2.1,7.4-2.8c2.1-3.5,11.3-5.2,21.9-3.8
			c11.3,1.5,20.1,5.8,20.3,9.9c0.7,0.4,1.3,0.9,1.9,1.3c6.4,4.8,10.7,11.3,11.1,19.4l-5.2-0.9c-0.7-6-4.1-10.9-8.9-14.5
			c-0.7-0.5-1.3-1-2.1-1.4c-3.9,1.9-11.2,2.6-19.2,1.6c-8.4-1.1-15.5-3.8-18.6-6.8c-2.3,0.6-4.5,1.4-6.4,2.4c-3.8,1.9-6.9,4.5-8.9,8
			L606.1,1043.1z" clip-rule="evenodd" class="color9d7558 svgShape"></path><path fill="#f4ae7c" fill-rule="evenodd" d="M627.2,1045.9c0,0-1.5-3.6-1.4-5.5c0,0,0.4-3.4,0.6-5.9c0-0.8,0.1-1.5,0-1.9c-0.1-1.8-0.9-5.8,0-10.3
			c0.7-3.4,3.7-12.9,5.1-17.5c4.6,0.1,19,0.2,27.4-0.9c2,5.6,8.8,25.3,8.5,29c0,0.4-0.1,0.8-0.2,1.2c-0.7,3.6-2.7,6-3.3,7.8
			c-0.2,0.7-2.8,7.2-4.8,7.9c-2.8,0.9-5.1,0.4-6.7-0.8c0,0-5.5,1.5-9.1,0c0,0-5.1,1.6-8.9-1.6
			C634.4,1047.5,629.1,1048.5,627.2,1045.9z" clip-rule="evenodd" class="colorf4ae7c svgShape"></path><path fill="#0f3970" fill-rule="evenodd" d="M800.4 704.9c-1.7.8-6.2-5.4-2-7.3C800.7 696.6 803.2 703.6 800.4 704.9zM797.1 690.9c2.8-1.2 3.8 1.2 2 2.7-.5.5-10.8 7.9-10.6 7C788.9 698.7 791.8 693.1 797.1 690.9z" clip-rule="evenodd" class="color0f3970 svgShape"></path><path fill="#ffffff" fill-rule="evenodd" d="M807.3,727.8c-3.2,18.9-17,7.3-14.6,6.1C804.7,727.6,807.7,725.5,807.3,727.8z" clip-rule="evenodd" class="colorfff svgShape"></path></g></svg></g></svg>